<?xml version="1.0" encoding="iso-8859-1"?>
<!-- Generator: Adobe Illustrator 19.0.0, SVG Export Plug-In . SVG Version: 6.00 Build 0)  -->
<svg version="1.1" id="Capa_1" xmlns="http://www.w3.org/2000/svg" xmlns:xlink="http://www.w3.org/1999/xlink" x="0px" y="0px"
	 viewBox="0 0 512 512" style="enable-background:new 0 0 512 512;" xml:space="preserve">
<g>
	<g>
		<path d="M213.569,133.5l-3.535,10H90v30h120.034l3.536,10c4.608,13.033,14.867,22.955,27.43,27.412V106.088
			C228.437,110.545,218.178,120.467,213.569,133.5z"/>
	</g>
</g>
<g>
	<g>
		<path d="M512,68.5V16H331v285h181v-52.5H361v-30h151v-120H361v-30H512z M452,143.5v30h-91v-30H452z"/>
	</g>
</g>
<g>
	<g>
		<rect y="331" width="512" height="60"/>
	</g>
</g>
<g>
	<g>
		<rect x="271" y="16" width="30" height="285"/>
	</g>
</g>
<g>
	<g>
		<path d="M189.665,113.5C200.163,93.624,219.107,79.509,241,75.025V16H0v285h241v-59.025
			c-21.893-4.484-40.837-18.599-51.335-38.475H60v-90H189.665z"/>
	</g>
</g>
<g>
	<g>
		<path d="M362,466c-16.542,0-30-13.458-30-30v-15H180v15c0,16.542-13.458,30-30,30H75v30h362v-30H362z"/>
	</g>
</g>
<g>
</g>
<g>
</g>
<g>
</g>
<g>
</g>
<g>
</g>
<g>
</g>
<g>
</g>
<g>
</g>
<g>
</g>
<g>
</g>
<g>
</g>
<g>
</g>
<g>
</g>
<g>
</g>
<g>
</g>
</svg>
